<?xml version="1.0" encoding="UTF-8"?>
<svg id="uuid-bcce2e98-bed1-4a1d-8446-83eff73f62da" data-name="Layer 1"
  xmlns="http://www.w3.org/2000/svg" viewBox="0 0 540 81">
  <defs>
    <style>
      .uuid-07730bc0-d88c-4399-95b1-4e39a6bcb691 {
        fill: #fff;
      }

      .uuid-d9464942-e111-46a4-9577-a11a037abe2e {
        fill: none;
        stroke: #666;
        stroke-miterlimit: 10;
      }

      .uuid-24e26f0f-6954-4f4f-8914-3a443ae630ff {
        fill: currentColor;
      }

      .uuid-d166c103-33a8-472f-9df3-eb7878d21695 {
        fill: #999;
      }

      .uuid-64e59998-06f4-4c76-8f09-600994e8693b {
        fill: #666;
      }
    </style>
  </defs>
  <g>
    <rect class="uuid-07730bc0-d88c-4399-95b1-4e39a6bcb691" x=".5" y=".5" width="241" height="80" rx="5.5" ry="5.5"/>
    <path class="uuid-d166c103-33a8-472f-9df3-eb7878d21695" d="M236,1c2.76,0,5,2.24,5,5V75c0,2.76-2.24,5-5,5H6c-2.76,0-5-2.24-5-5V6C1,3.24,3.24,1,6,1H236m0-1H6C2.69,0,0,2.69,0,6V75c0,3.31,2.69,6,6,6H236c3.31,0,6-2.69,6-6V6c0-3.31-2.69-6-6-6h0Z"/>
  </g>
  <g>
    <path class="uuid-24e26f0f-6954-4f4f-8914-3a443ae630ff" d="M91.37,52.12c-2.76,0-4.89-.68-6.4-2.04-1.51-1.36-2.26-3.32-2.26-5.87s.69-4.41,2.06-5.79c1.38-1.38,3.34-2.06,5.89-2.06,1.57,0,2.91,.31,4.03,.92,1.12,.61,1.92,1.48,2.38,2.59l-2.81,2.23c-.42-.66-.95-1.17-1.6-1.53-.64-.36-1.35-.54-2.13-.54-1.21,0-2.16,.35-2.84,1.05s-1.02,1.69-1.02,2.98c0,1.42,.44,2.51,1.31,3.25,.87,.75,2.12,1.12,3.73,1.12,.69,0,1.37-.03,2.06-.1,.68-.07,1.35-.16,2-.27l.4,3.62c-.77,.17-1.57,.29-2.39,.34-.82,.06-1.62,.09-2.41,.09Z"/>
    <path class="uuid-24e26f0f-6954-4f4f-8914-3a443ae630ff" d="M102.85,52.12c-1.61,0-2.87-.4-3.77-1.19s-1.35-1.92-1.35-3.38c0-1.7,.59-3,1.76-3.91s2.84-1.36,5-1.36c.83,0,1.55,.04,2.16,.13,.61,.09,1.22,.22,1.84,.4l-.63,3.02c-.61-.14-1.16-.23-1.65-.25-.49-.02-1-.04-1.53-.04-2,0-3.01,.57-3.01,1.72,0,.52,.18,.91,.54,1.18s.89,.41,1.59,.41c.84,0,1.54-.16,2.11-.47s.99-.72,1.27-1.2,.42-.99,.42-1.5v-.95l.54,3.9h-1.22l.5-.46c-.03,.88-.23,1.61-.6,2.2-.37,.59-.9,1.03-1.57,1.32-.67,.29-1.48,.44-2.41,.44Zm5.14-.14l-.33-4.5-.06-1.98v-2.96c0-.81-.35-1.41-1.04-1.78-.69-.38-1.72-.58-3.09-.62l-3.88-.1,.29-3.52,3.31,.04c2.75,.04,4.79,.58,6.13,1.63,1.34,1.05,2.01,2.57,2.01,4.58v5.61l2.11,.31v3.15l-5.44,.14Z"/>
    <path class="uuid-24e26f0f-6954-4f4f-8914-3a443ae630ff" d="M113.37,33.92v-3.57h4.55v3.57h-4.55Zm9.7,18.2c-1.91,0-3.29-.53-4.13-1.58-.85-1.05-1.27-2.73-1.27-5.04v-15.15h3.87v15.01c0,.63,.07,1.15,.2,1.55,.13,.4,.39,.7,.77,.89,.38,.19,.95,.29,1.7,.29,.84,0,1.9-.18,3.18-.54l.44,3.98c-.81,.21-1.59,.36-2.35,.46-.75,.1-1.56,.14-2.42,.14Z"/>
    <path class="uuid-24e26f0f-6954-4f4f-8914-3a443ae630ff" d="M128.97,33.92v-3.57h4.55v3.57h-4.55Zm9.7,18.2c-1.91,0-3.29-.53-4.13-1.58-.85-1.05-1.27-2.73-1.27-5.04v-15.15h3.87v15.01c0,.63,.07,1.15,.2,1.55,.13,.4,.39,.7,.77,.89,.38,.19,.95,.29,1.7,.29,.84,0,1.9-.18,3.18-.54l.44,3.98c-.81,.21-1.59,.36-2.35,.46-.75,.1-1.56,.14-2.42,.14Z"/>
    <path class="uuid-24e26f0f-6954-4f4f-8914-3a443ae630ff" d="M157.3,54.7c-3.27,0-5.81-1.14-7.62-3.43-1.8-2.29-2.71-5.52-2.71-9.69s.9-7.3,2.71-9.56c1.8-2.26,4.34-3.39,7.62-3.39h.63v3.59h-.63c-2.03,0-3.6,.82-4.7,2.45-1.1,1.63-1.65,3.93-1.65,6.9s.55,5.36,1.65,7.03c1.1,1.67,2.67,2.5,4.7,2.5h.63v3.59h-.63Z"/>
    <path class="uuid-24e26f0f-6954-4f4f-8914-3a443ae630ff" d="M170.42,51.83l-3.9-6.45-6.34-8.74h4.63l3.95,6.7,6.29,8.48h-4.63Zm-10.24,0l6.29-8.48,3.95-6.7h4.63l-6.52,8.74-3.72,6.45h-4.63Z"/>
    <path class="uuid-24e26f0f-6954-4f4f-8914-3a443ae630ff" d="M180.05,58.08l1.15-9.88h4.27l-1.72,9.88h-3.7Z"/>
    <path class="uuid-24e26f0f-6954-4f4f-8914-3a443ae630ff" d="M195.86,51.83l-5.1-15.18h4.11l3.77,11.89h.69v3.29h-3.47Zm-4.81,6.88l-.14-3.37,2.62-.29c.9-.11,1.67-.34,2.31-.72,.64-.37,1.19-.93,1.64-1.67,.45-.74,.85-1.71,1.18-2.9l3.67-13.12h4.11l-4.27,13.84c-.57,1.82-1.23,3.29-1.98,4.4-.74,1.11-1.63,1.94-2.65,2.49-1.02,.55-2.24,.9-3.67,1.04l-2.82,.29Z"/>
    <path class="uuid-24e26f0f-6954-4f4f-8914-3a443ae630ff" d="M208.49,54.7v-3.59h.62c2.04,0,3.61-.83,4.71-2.5,1.1-1.67,1.65-4.01,1.65-7.03s-.55-5.27-1.65-6.9-2.67-2.45-4.71-2.45h-.62v-3.59h.62c3.28,0,5.83,1.13,7.63,3.39,1.8,2.26,2.7,5.44,2.7,9.56s-.9,7.4-2.7,9.69c-1.8,2.29-4.34,3.43-7.63,3.43h-.62Z"/>
  </g>
  <g>
    <path class="uuid-24e26f0f-6954-4f4f-8914-3a443ae630ff" d="M22.59,64.19c-.38,.65-.92,1.16-1.62,1.51-.7,.36-1.51,.54-2.43,.54h-3.41c-.92,0-1.73-.18-2.43-.54-.7-.36-1.24-.86-1.63-1.51-.38-.65-.58-1.41-.58-2.27,0-.71,.14-1.37,.43-1.96,.29-.6,.7-1.1,1.23-1.5,.53-.4,1.15-.67,1.85-.81v1.23c-.47,.14-.88,.36-1.24,.67s-.64,.67-.84,1.09c-.2,.42-.3,.85-.3,1.29,0,.61,.14,1.15,.43,1.62,.29,.47,.7,.83,1.22,1.08s1.14,.38,1.83,.38h3.41c.69,0,1.3-.13,1.83-.38s.93-.62,1.22-1.08c.29-.47,.43-1.01,.43-1.62,0-.44-.09-.87-.28-1.29-.19-.42-.46-.78-.82-1.09s-.78-.53-1.27-.67v-1.23c.7,.14,1.32,.42,1.85,.82,.53,.4,.94,.9,1.23,1.5,.29,.6,.44,1.25,.44,1.95,0,.86-.19,1.61-.57,2.27Z"/>
    <path class="uuid-24e26f0f-6954-4f4f-8914-3a443ae630ff" d="M10.62,56.28v-1.23h12.41v1.23H10.62Zm11.26-.87v-7.1h1.14v7.1h-1.14Z"/>
    <path class="uuid-24e26f0f-6954-4f4f-8914-3a443ae630ff" d="M23.03,45.72v1.23H10.62v-1.23h12.41Z"/>
    <path class="uuid-24e26f0f-6954-4f4f-8914-3a443ae630ff" d="M10.62,42.49v-7.13h1.14v7.13h-1.14Zm0,.84v-1.23h12.41v1.23H10.62Zm5.67-.84v-6.19h1.14v6.19h-1.14Zm5.59,0v-7.13h1.14v7.13h-1.14Z"/>
    <path class="uuid-24e26f0f-6954-4f4f-8914-3a443ae630ff" d="M10.62,33.84v-1.24l11.18-7.2-.34,.5H10.62v-1.23h12.4v1.25l-11.26,7.35,.49-.67h10.78v1.23H10.62Z"/>
    <path class="uuid-24e26f0f-6954-4f4f-8914-3a443ae630ff" d="M10.62,23.57V14.81h1.14v8.76h-1.14Zm.5-3.76v-1.23h11.91v1.23H11.12Z"/>
  </g>
  <g>
    <rect class="uuid-07730bc0-d88c-4399-95b1-4e39a6bcb691" x="298.5" y=".5" width="241" height="80" rx="5.5" ry="5.5"/>
    <path class="uuid-d166c103-33a8-472f-9df3-eb7878d21695" d="M534,1c2.76,0,5,2.24,5,5V75c0,2.76-2.24,5-5,5h-230c-2.76,0-5-2.24-5-5V6c0-2.76,2.24-5,5-5h230m0-1h-230c-3.31,0-6,2.69-6,6V75c0,3.31,2.69,6,6,6h230c3.31,0,6-2.69,6-6V6c0-3.31-2.69-6-6-6h0Z"/>
  </g>
  <g>
    <path class="uuid-24e26f0f-6954-4f4f-8914-3a443ae630ff" d="M319.31,51.83v-3.32h10.63v3.32h-10.63Zm.57-11.86v-3.32h5.73l.29,3.32h-6.02Zm2.64,11.86v-15.18h3.29l.57,4.35v10.83h-3.87Zm3.87-6.53l-.89-5.23h1.3c.15-2.47,1.45-3.71,3.88-3.71,1.44,0,2.55,.53,3.32,1.59s1.15,2.59,1.15,4.58h-3.87c0-.9-.17-1.54-.49-1.93-.33-.39-.86-.59-1.58-.59-.95,0-1.65,.46-2.12,1.38-.47,.92-.7,2.22-.7,3.91Z"/>
    <path class="uuid-24e26f0f-6954-4f4f-8914-3a443ae630ff" d="M343.81,52.12c-2.63,0-4.65-.68-6.09-2.04-1.43-1.36-2.15-3.32-2.15-5.87s.61-4.41,1.83-5.79,2.93-2.06,5.15-2.06,3.84,.64,5.03,1.9c1.18,1.27,1.78,3.12,1.78,5.54,0,.69-.03,1.34-.09,1.96h-11.14v-2.69h7.42c0-1.02-.26-1.8-.78-2.35-.52-.54-1.25-.82-2.18-.82-1.01,0-1.8,.36-2.36,1.08-.56,.72-.84,1.75-.84,3.07,0,1.43,.41,2.52,1.24,3.27,.83,.74,2,1.12,3.53,1.12,.69,0,1.37-.04,2.03-.11,.67-.07,1.35-.17,2.05-.29l.37,3.67c-.97,.17-1.86,.28-2.66,.33-.8,.05-1.51,.07-2.13,.07Z"/>
    <path class="uuid-24e26f0f-6954-4f4f-8914-3a443ae630ff" d="M350.37,40.22v-3.57h14.24v3.57h-14.24Zm3.64,4.21v-12.36h3.87v12.36h-3.87Zm7.42,7.69c-2.62,0-4.51-.53-5.67-1.58-1.17-1.05-1.75-2.73-1.75-5.04v-1.98h3.87v1.6c0,1.16,.3,2,.9,2.52,.6,.53,1.58,.79,2.94,.79,.44,0,.91-.03,1.41-.08,.5-.05,1.07-.12,1.71-.21l.34,3.62c-.63,.11-1.24,.2-1.84,.26-.6,.06-1.23,.09-1.91,.09Z"/>
    <path class="uuid-24e26f0f-6954-4f4f-8914-3a443ae630ff" d="M371.6,52.12c-1.44,0-2.56-.48-3.35-1.43-.79-.95-1.19-2.29-1.19-4.02v-10.03h3.88v9.07c0,.87,.2,1.54,.59,2.01s.94,.71,1.64,.71c.91,0,1.59-.35,2.06-1.05,.46-.7,.69-1.88,.69-3.53l.77,5.06h-1.17c-.24,1.03-.7,1.82-1.39,2.38s-1.53,.83-2.54,.83Zm4.33-4.58v-10.88h3.88v10.03l-3.88,.86Zm.26,4.44l-.26-3.64v-2.66h3.88v2.69l2.09,.31v3.15l-5.71,.14Z"/>
    <path class="uuid-24e26f0f-6954-4f4f-8914-3a443ae630ff" d="M381.72,51.83v-3.32h10.63v3.32h-10.63Zm.57-11.86v-3.32h5.73l.29,3.32h-6.02Zm2.64,11.86v-15.18h3.29l.57,4.35v10.83h-3.87Zm3.87-6.53l-.89-5.23h1.3c.15-2.47,1.45-3.71,3.88-3.71,1.44,0,2.55,.53,3.32,1.59s1.15,2.59,1.15,4.58h-3.87c0-.9-.17-1.54-.49-1.93-.33-.39-.86-.59-1.58-.59-.95,0-1.65,.46-2.12,1.38-.47,.92-.7,2.22-.7,3.91Z"/>
    <path class="uuid-24e26f0f-6954-4f4f-8914-3a443ae630ff" d="M398.59,51.83v-15.18h3.47l.42,3.21v11.97h-3.88Zm8.98,0v-8.92c0-.92-.19-1.62-.57-2.12s-.91-.75-1.61-.75c-1.95,0-2.92,1.4-2.92,4.21l-.89-4.85h1.26c.14-1.02,.49-1.78,1.05-2.28s1.39-.75,2.52-.75c1.6,0,2.84,.49,3.72,1.46,.88,.97,1.32,2.35,1.32,4.12v9.88h-3.88Z"/>
    <path class="uuid-24e26f0f-6954-4f4f-8914-3a443ae630ff" d="M429.98,39.99v-3.34h12.2v3.34h-12.2Zm2.99,10.25l-2.99-1.75,9.39-10.2,2.81,1.69-9.21,10.25Zm-2.99,1.59v-3.34h12.49v3.34h-12.49Z"/>
  </g>
  <g>
    <path class="uuid-24e26f0f-6954-4f4f-8914-3a443ae630ff" d="M516.85,12.09c.11-.54,.28-1.03,.51-1.5,.23-.46,.51-.9,.85-1.3l.97,.74c-.46,.52-.8,1.09-1.02,1.72-.23,.63-.34,1.31-.34,2.04,0,1.06,.21,1.89,.63,2.47,.42,.58,1.01,.87,1.77,.87h0c.47,0,.85-.13,1.13-.38,.29-.25,.5-.58,.64-.98,.14-.4,.27-.92,.39-1.55,0-.02,0-.04,.01-.06,0-.02,0-.04,.01-.06l.05-.25c.17-.87,.34-1.57,.52-2.09,.18-.52,.48-.97,.91-1.34,.43-.37,1.03-.55,1.79-.55h0c.77,0,1.42,.17,1.97,.52s.96,.85,1.24,1.51c.28,.66,.43,1.45,.43,2.38,0,.44-.05,.87-.14,1.3s-.24,.85-.43,1.27c-.19,.42-.43,.83-.72,1.24l-.96-.73c.38-.53,.66-1.06,.84-1.57,.19-.51,.28-1.02,.28-1.52,0-1.01-.21-1.8-.64-2.36-.43-.56-1.03-.84-1.8-.84h0c-.47,0-.83,.14-1.1,.42-.27,.28-.47,.62-.6,1.04-.13,.41-.27,.98-.41,1.69,0,.02-.01,.05-.02,.07,0,.03-.01,.05-.02,.08,0,.03-.01,.07-.02,.1,0,.03-.02,.06-.02,.1-.16,.78-.34,1.43-.55,1.95-.21,.52-.52,.95-.96,1.29-.44,.34-1.02,.52-1.76,.52h-.02c-.76,0-1.4-.18-1.94-.54-.54-.36-.95-.88-1.23-1.56-.28-.68-.42-1.5-.42-2.46,0-.6,.06-1.16,.17-1.7Z"/>
    <path class="uuid-24e26f0f-6954-4f4f-8914-3a443ae630ff" d="M529.22,19.7v1.23h-12.41v-1.23h12.41Zm-11.26,.84v7.13h-1.14v-7.13h1.14Zm5.59,0v6.19h-1.14v-6.19h1.14Zm5.67,0v7.13h-1.14v-7.13h1.14Z"/>
    <path class="uuid-24e26f0f-6954-4f4f-8914-3a443ae630ff" d="M529.23,29.2v1.23h-12.42v-1.23h12.42Zm-6.78,4.74l.39,1.14-6.03,3.17v-1.47l5.63-2.84Zm.76-3.98v4.23c0,.46,.1,.87,.3,1.22,.2,.35,.49,.62,.86,.81,.37,.19,.8,.29,1.28,.29,.48,0,.91-.1,1.28-.29,.37-.19,.66-.46,.86-.81,.2-.35,.3-.76,.3-1.22v-4.23h1.14v4.16c0,.72-.15,1.35-.44,1.89s-.72,.96-1.26,1.26c-.54,.3-1.17,.45-1.88,.45s-1.34-.15-1.88-.45c-.54-.3-.96-.72-1.26-1.27-.3-.55-.44-1.17-.44-1.89v-4.16h1.14Z"/>
    <path class="uuid-24e26f0f-6954-4f4f-8914-3a443ae630ff" d="M529.22,38.29v1.3l-10.67,3.58,10.67,3.58v1.3l-12.41-4.3v-1.14l12.41-4.3Z"/>
    <path class="uuid-24e26f0f-6954-4f4f-8914-3a443ae630ff" d="M529.22,48.97v1.23h-12.41v-1.23h12.41Zm-11.26,.84v7.13h-1.14v-7.13h1.14Zm5.59,0v6.19h-1.14v-6.19h1.14Zm5.67,0v7.13h-1.14v-7.13h1.14Z"/>
    <path class="uuid-24e26f0f-6954-4f4f-8914-3a443ae630ff" d="M529.23,58.47v1.23h-12.42v-1.23h12.42Zm-6.78,4.74l.39,1.14-6.03,3.17v-1.47l5.63-2.84Zm.76-3.98v4.23c0,.46,.1,.87,.3,1.22,.2,.35,.49,.62,.86,.81,.37,.19,.8,.29,1.28,.29,.48,0,.91-.1,1.28-.29,.37-.19,.66-.46,.86-.81,.2-.35,.3-.76,.3-1.22v-4.23h1.14v4.16c0,.72-.15,1.35-.44,1.89s-.72,.96-1.26,1.26c-.54,.3-1.17,.45-1.88,.45s-1.34-.15-1.88-.45c-.54-.3-.96-.72-1.26-1.27-.3-.55-.44-1.17-.44-1.89v-4.16h1.14Z"/>
  </g>
  <g>
    <line class="uuid-d9464942-e111-46a4-9577-a11a037abe2e" x1="241.07" y1="41" x2="298.93" y2="41"/>
    <path class="uuid-64e59998-06f4-4c76-8f09-600994e8693b" d="M241.26,44.76c-2.08,0-3.76-1.68-3.76-3.76s1.68-3.76,3.76-3.76,3.76,1.68,3.76,3.76-1.68,3.76-3.76,3.76Z"/>
    <path class="uuid-64e59998-06f4-4c76-8f09-600994e8693b" d="M298.74,44.76c2.08,0,3.76-1.68,3.76-3.76s-1.68-3.76-3.76-3.76-3.76,1.68-3.76,3.76,1.68,3.76,3.76,3.76Z"/>
  </g>
</svg>
