<?xml version="1.0" encoding="UTF-8"?>
<svg id="b" data-name="Layer 2"
  xmlns="http://www.w3.org/2000/svg" viewBox="0 0 356 131">
  <defs>
    <style>
      .c {
        fill: var(--theme-bg-color-dark);
      }

      .d, .e, .f {
        stroke: var(--color-dim);
      }

      .d, .e, .f {
        fill: none;
        stroke-miterlimit: 10;
      }
      .d {
        fill: white;
      }

      .e {
        stroke-width: 1.45px;
        stroke: #717b89;
      }

      .k {
        font-size: 8px !important;
        fill: currentColor;
      }

      .l {
        font-size: 8px !important;
        fill: currentColor;
      }

      .fill-dark {
        fill: #717b89;
      }
    </style>
  </defs>
  <g>
    <circle class="fill-dark" cx="29" cy="66" r="5"/>
    <path class="fill-dark" d="M29,58.84c3.95,0,7.16,3.21,7.16,7.16s-3.21,7.16-7.16,7.16-7.16-3.21-7.16-7.16,3.21-7.16,7.16-7.16m0-.84c-4.42,0-8,3.58-8,8s3.58,8,8,8,8-3.58,8-8-3.58-8-8-8h0Z"/>
  </g>
  <g>
    <circle class="fill-dark" cx="333" cy="66" r="5"/>
    <path class="fill-dark" d="M333,58.84c3.95,0,7.16,3.21,7.16,7.16s-3.21,7.16-7.16,7.16-7.16-3.21-7.16-7.16,3.21-7.16,7.16-7.16m0-.84c-4.42,0-8,3.58-8,8s3.58,8,8,8,8-3.58,8-8-3.58-8-8-8h0Z"/>
  </g>
  <rect class="d" x="134.5" y="52.5" width="88" height="27" rx="12" ry="12"/>
  <rect class="f" x="94.95" y="23.5" width="167.09" height="85" rx="6" ry="6"/>
  <rect class="f" x="77.05" y="15.5" width="202.9" height="101" rx="6" ry="6"/>
  <rect class="f" x="60" y="6.5" width="237" height="119" rx="6" ry="6"/>
  <g>
    <line class="e" x1="43.5" y1="65.5" x2="122.34" y2="65.5"/>
    <polygon class="fill-dark" points="121.5 68.39 126.5 65.5 121.5 62.61 121.5 68.39"/>
  </g>
  <g>
    <line class="e" x1="229" y1="65.5" x2="311.34" y2="65.5"/>
    <polygon class="fill-dark" points="310.5 68.39 315.5 65.5 310.5 62.61 310.5 68.39"/>
  </g>
  <text class="l" transform="translate(10.48 50.91)">HttpCall</text>
  <text class="k" transform="translate(161.42 68.91)">Handler</text>
  <text class="l" transform="translate(319.26 50.91)">Result</text>
  <rect class="c" x="67" y="62" width="7" height="6"/>
  <rect class="c" x="84" y="62" width="7" height="6"/>
  <rect class="c" x="102" y="62" width="7" height="6"/>
  <rect class="c" x="267" y="62" width="7" height="6"/>
  <rect class="c" x="248" y="62" width="7" height="6"/>
  <rect class="c" x="285" y="62" width="7" height="6"/>
  <text class="k" transform="translate(72.94 93) rotate(-90)">Middleware 1</text>
  <text class="k" transform="translate(89.94 93) rotate(-90)">Middleware 2</text>
  <text class="k" transform="translate(107.94 93.5) rotate(-90)">Middleware N</text>
  <text class="k" transform="translate(286.06 39) rotate(90)">Middleware 1</text>
  <text class="k" transform="translate(268.06 39) rotate(90)">Middleware 2</text>
  <text class="k" transform="translate(249.06 38.5) rotate(90)">Middleware N</text>
</svg>
