<svg xmlns="http://www.w3.org/2000/svg" viewBox="0 0 440 440">
  <polygon fill="#000" points="366 440 440 366 440 0 74 0 0 74 0 440 366 440"/>
  <path fill="#fff" d="M134.29,203.5h7.5c23.4,0,35.1,11.1,35.1,33.3v115.2h-42v-109.5c0-5-2.7-7.5-8.1-7.5h-7.2c-5.8,0-8.7,3.2-8.7,9.6v107.4h-41.7V151.3h41.7v66.9c3-9.8,10.8-14.7,23.4-14.7Z"/>
  <path fill="#fff" d="M310.99,256.9h-40.8v-14.4c0-5-2.7-7.5-8.1-7.5h-7.8c-5.4,0-8.1,2.5-8.1,7.5v70.5c0,5,2.7,7.5,8.1,7.5h7.8c5.4,0,8.1-2.5,8.1-7.5v-14.4h40.8v20.1c0,22.2-12.7,33.3-38.1,33.3h-30.6c-25.4,0-38.1-11.1-38.1-33.3v-81.9c0-22.2,12.7-33.3,38.1-33.3h30.6c25.4,0,38.1,11.1,38.1,33.3v20.1Z"/>
  <path fill="#fff" d="M337.28,343v-44.4h43.5v44.4h-43.5Z"/>
  <path fill="#fff" d="M337.28,258v-44.4h43.5v44.4h-43.5Z"/>
</svg>
