<svg version="1.1"
	xmlns="http://www.w3.org/2000/svg" viewBox="0 0 250 128">
	<path d="M40,36.9h3.2c10,0,15,4.7,15,14.2v49.2H40.3V53.6c0-2.1-1.2-3.2-3.5-3.2h-3.1c-2.5,0-3.7,1.4-3.7,4.1v45.8H12.2V14.7H30
		v28.5C31.3,39,34.6,36.9,40,36.9z"/>
	<path d="M96.5,50.4h-8.3v33.2c0,2,1.2,3.1,3.5,3.1h4.9v13.7h-10c-10.8,0-16.1-4.7-16.1-14.2V50.4h-6.7V36.9h6.7V25.2h17.8v11.8h8.3
		V50.4z"/>
	<path d="M131.1,50.4h-8.3v33.2c0,2,1.2,3.1,3.5,3.1h4.9v13.7h-10c-10.8,0-16.1-4.7-16.1-14.2V50.4h-6.7V36.9h6.7V25.2h17.8v11.8
		h8.3V50.4z"/>
	<path d="M165.6,36.9h3.2c10,0,15,4.7,15,14.2v34.9c0,9.5-5,14.2-15,14.2h-3.2c-5.4,0-8.7-2.1-10-6.3v23.3h-17.8V36.9h17.5v7.2
		C156.5,39.3,159.9,36.9,165.6,36.9z M165.8,83.7V53.6c0-2.1-1.2-3.2-3.5-3.2h-3.1c-2.5,0-3.7,1.4-3.7,4.1v28.3
		c0,2.7,1.2,4.1,3.7,4.1h3.1C164.7,86.9,165.8,85.8,165.8,83.7z"/>
	<path d="M237.8,59.7h-17.4v-6.1c0-2.1-1.2-3.2-3.5-3.2h-3.3c-2.3,0-3.5,1.1-3.5,3.2v30.1c0,2.1,1.2,3.2,3.5,3.2h3.3
		c2.3,0,3.5-1.1,3.5-3.2v-6.1h17.4v8.6c0,9.5-5.4,14.2-16.3,14.2h-13.1c-10.8,0-16.3-4.7-16.3-14.2V51.2c0-9.5,5.4-14.2,16.3-14.2
		h13.1c10.8,0,16.3,4.7,16.3,14.2V59.7z"/>
</svg>
